# xmcd CD database file
#
# Track frame offsets:
#	150
#	2395
#	13090
#	31147
#	54008
#	67297
#	101766
#	117557
#	143382
#	159462
#	164832
#
# Disc length: 2835 seconds
#
# Revision: 2
# Processed by: cddbd v1.5.1PL0 Copyright (c) Steve Scherf et al.
# Submitted via: Feurio! 1.68 - http://www.feurio.com
#
DISCID=890b110b
DTITLE=Erin McKeown - Morning Becomes Eclectic KCRW Aug 6 2003
DYEAR=1900
DGENRE=
TTITLE0=Intro
TTITLE1=Cinematic
TTITLE2=cosmopolitans
TTITLE3=an innocent fiction
TTITLE4=born to hum
TTITLE5=talk with nic
TTITLE6=slung-lo
TTITLE7=james!
TTITLE8=a better wife
TTITLE9=outro
TTITLE10=the secret track: blackbirds
EXTD=
EXTT0=
EXTT1=
EXTT2=
EXTT3=
EXTT4=
EXTT5=
EXTT6=
EXTT7=
EXTT8=
EXTT9=
EXTT10=
PLAYORDER=
